<svg id="Layer_1" data-name="Layer 1" xmlns="http://www.w3.org/2000/svg" xmlns:xlink="http://www.w3.org/1999/xlink" viewBox="0 0 282.56 282.56"><defs><style>.cls-1{fill:none;}.cls-2{fill:#939598;}.cls-3{fill:#262262;}.cls-4{font-size:8.3px;font-family:Roboto Condensed;}.cls-11,.cls-4{fill:#fff;}.cls-5{clip-path:url(#clip-path);}.cls-6{fill:url(#Blue);}.cls-7{fill:url(#Green);}.cls-8{fill:url(#Gold);}.cls-9{fill:url(#Gold-2);}.cls-10{fill:#1e194f;}.cls-12{fill:url(#Blue-2);}.cls-13{fill:url(#Blue-3);}.cls-14{fill:url(#Blue-4);}</style><clipPath id="clip-path" transform="translate(-156.36 -279.67)"><circle class="cls-1" cx="297.64" cy="420.94" r="106.54"/></clipPath><linearGradient id="Blue" x1="297.64" y1="324" x2="297.64" y2="364.67" gradientUnits="userSpaceOnUse"><stop offset="0" stop-color="#2bc4f3"/><stop offset="0.5" stop-color="#00aeee"/><stop offset="1" stop-color="#0095da"/></linearGradient><linearGradient id="Green" x1="297.64" y1="379.33" x2="297.64" y2="524.1" gradientUnits="userSpaceOnUse"><stop offset="0" stop-color="#64c08a"/><stop offset="0.5" stop-color="#00a550"/><stop offset="1" stop-color="#00914c"/></linearGradient><linearGradient id="Gold" x1="123.95" y1="71.83" x2="182.45" y2="80.83" gradientUnits="userSpaceOnUse"><stop offset="0" stop-color="#ffe7a3"/><stop offset="0.5" stop-color="#ffca05"/><stop offset="1" stop-color="#faac18"/></linearGradient><linearGradient id="Gold-2" x1="92.71" y1="72.21" x2="120.71" y2="90.71" xlink:href="#Gold"/><linearGradient id="Blue-2" x1="107.22" y1="55.71" x2="107.22" y2="70.42" xlink:href="#Blue"/><linearGradient id="Blue-3" x1="144.45" y1="48.91" x2="144.45" y2="60.86" xlink:href="#Blue"/><linearGradient id="Blue-4" x1="192.7" y1="68.16" x2="192.7" y2="74.58" xlink:href="#Blue"/></defs><title>Sultan Logo</title><circle class="cls-2" cx="141.28" cy="141.28" r="141.28"/><circle class="cls-3" cx="141.28" cy="141.28" r="137.9"/><text class="cls-4" transform="translate(160.6 22.08) rotate(10.71)">Ж</text><text class="cls-4" transform="translate(166.97 23.31) rotate(13.38)">А</text><text class="cls-4" transform="translate(171.57 24.38) rotate(16)">М</text><text class="cls-4" transform="matrix(0.95, 0.32, -0.32, 0.95, 177.53, 26.11)">Б</text><text class="cls-4" transform="translate(181.82 27.53) rotate(21.12)">Ы</text><text class="cls-4" transform="translate(187.6 29.77) rotate(23.81)">Л</text><text class="cls-4" transform="translate(192.22 31.84) rotate(25.46)"> </text><text class="cls-4" transform="translate(193.91 32.62) rotate(27.08)">О</text><text class="cls-4" transform="matrix(0.87, 0.49, -0.49, 0.87, 198.3, 34.86)">Б</text><text class="cls-4" transform="matrix(0.85, 0.52, -0.52, 0.85, 202.25, 37.07)">Л</text><text class="cls-4" transform="matrix(0.83, 0.56, -0.56, 0.83, 206.54, 39.7)">Ы</text><text class="cls-4" transform="translate(211.66 43.2) rotate(36.82)">С</text><text class="cls-4" transform="translate(215.39 45.98) rotate(39.39)">Ы</text><text class="cls-4" transform="translate(220.17 49.95) rotate(41.29)"> </text><text class="cls-4" transform="translate(221.59 51.16) rotate(42.89)">Ә</text><text class="cls-4" transform="translate(225.18 54.5) rotate(45.13)">К</text><text class="cls-4" transform="matrix(0.69, 0.73, -0.73, 0.69, 228.43, 57.78)">І</text><text class="cls-4" transform="translate(229.85 59.25) rotate(48.65)">М</text><text class="cls-4" transform="translate(234 63.97) rotate(51.44)">Д</text><text class="cls-4" transform="translate(237.36 68.22) rotate(53.19)">І</text><text class="cls-4" transform="translate(238.6 69.86) rotate(54.63)">Г</text><text class="cls-4" transform="matrix(0.56, 0.83, -0.83, 0.56, 240.91, 73.13)">І</text><text class="cls-4" transform="translate(242.06 74.81) rotate(57.76)">Н</text><text class="cls-4" transform="translate(244.77 79.14) rotate(59.46)">І</text><text class="cls-4" transform="translate(245.83 80.89) rotate(61.16)">Ң</text><text class="cls-4" transform="translate(248.27 85.36) rotate(62.81)"> </text><text class="cls-4" transform="translate(249.15 87) rotate(64.81)">Ж</text><text class="cls-4" transform="translate(251.86 92.79) rotate(67.49)">О</text><text class="cls-4" transform="translate(253.7 97.23) rotate(69.81)">Л</text><text class="cls-4" transform="matrix(0.31, 0.95, -0.95, 0.31, 255.47, 102.03)">А</text><text class="cls-4" transform="translate(256.91 106.53) rotate(74.39)">У</text><text class="cls-4" transform="translate(258.15 110.84) rotate(77.06)">Ш</text><text class="cls-4" transform="matrix(0.17, 0.99, -0.99, 0.17, 259.64, 117.35)">Ы</text><text class="cls-4" transform="matrix(0.13, 0.99, -0.99, 0.13, 260.69, 123.48)">Л</text><text class="cls-4" transform="translate(261.33 128.56) rotate(85.14)">А</text><text class="cls-4" transform="translate(261.73 133.27) rotate(87.32)">Р</text><text class="cls-4" transform="translate(261.91 137.85) rotate(88.16)"> </text><text class="cls-4" transform="translate(261.98 139.71) rotate(90.33)">К</text><text class="cls-4" transform="translate(261.96 144.17) rotate(92.49)">Ө</text><text class="cls-4" transform="matrix(-0.08, 1, -1, -0.08, 261.75, 149.04)">Л</text><text class="cls-4" transform="translate(261.31 154.09) rotate(96.51)">І</text><text class="cls-4" transform="matrix(-0.14, 0.99, -0.99, -0.14, 261.09, 156.13)">Г</text><text class="cls-4" transform="translate(260.52 160.1) rotate(99.39)">І</text><text class="cls-4" transform="matrix(-0.18, 0.98, -0.98, -0.18, 260.18, 162.14)"> </text><text class="cls-4" transform="translate(259.89 163.96) rotate(102.33)">Ж</text><text class="cls-4" transform="translate(258.51 170.21) rotate(105.01)">Ә</text><text class="cls-4" transform="matrix(-0.3, 0.95, -0.95, -0.3, 257.25, 174.94)">Н</text><text class="cls-4" transform="translate(255.72 179.79) rotate(109.58)">Е</text><text class="cls-4" transform="translate(254.34 183.63) rotate(111)"> </text><text class="cls-4" transform="matrix(-0.38, 0.92, -0.92, -0.38, 253.69, 185.38)">А</text><text class="cls-4" transform="translate(251.87 189.75) rotate(114.78)">В</text><text class="cls-4" transform="translate(250.03 193.72) rotate(116.82)">Т</text><text class="cls-4" transform="translate(248.17 197.42) rotate(118.94)">О</text><text class="cls-4" transform="translate(245.8 201.75) rotate(121.59)">М</text><text class="cls-4" transform="matrix(-0.56, 0.83, -0.83, -0.56, 242.54, 207.02)">О</text><text class="cls-4" transform="matrix(-0.59, 0.8, -0.8, -0.59, 239.77, 211.1)">Б</text><text class="cls-4" transform="matrix(-0.63, 0.78, -0.78, -0.63, 237.09, 214.73)">И</text><text class="cls-4" transform="matrix(-0.66, 0.75, -0.75, -0.66, 233.88, 218.74)">Л</text><text class="cls-4" transform="translate(230.54 222.55) rotate(133.4)">Ь</text><text class="cls-4" transform="translate(227.41 225.84) rotate(134.92)"> </text><text class="cls-4" transform="matrix(-0.73, 0.68, -0.68, -0.73, 226.14, 227.17)">Ж</text><text class="cls-4" transform="matrix(-0.76, 0.65, -0.65, -0.76, 221.46, 231.53)">О</text><text class="cls-4" transform="matrix(-0.79, 0.62, -0.62, -0.79, 217.8, 234.66)">Л</text><text class="cls-4" transform="translate(213.76 237.84) rotate(144.35)">Д</text><text class="cls-4" transform="matrix(-0.84, 0.55, -0.55, -0.84, 209.3, 241.03)">А</text><text class="cls-4" transform="translate(205.34 243.62) rotate(148.99)">Р</text><text class="cls-4" transform="matrix(-0.88, 0.48, -0.48, -0.88, 201.45, 245.98)">Ы</text><text class="cls-4" transform="translate(195.98 248.91) rotate(153.47)"> </text><text class="cls-4" transform="translate(194.31 249.76) rotate(155)">Б</text><text class="cls-4" transform="matrix(-0.92, 0.39, -0.39, -0.92, 190.22, 251.67)">А</text><text class="cls-4" transform="translate(185.92 253.48) rotate(159.42)">С</text><text class="cls-4" transform="translate(181.56 255.12) rotate(161.63)">Қ</text><text class="cls-4" transform="translate(177.19 256.57) rotate(163.86)">А</text><text class="cls-4" transform="translate(172.64 257.88) rotate(166.09)">Р</text><text class="cls-4" transform="translate(168.26 258.99) rotate(168.64)">М</text><text class="cls-4" transform="matrix(-0.99, 0.15, -0.15, -0.99, 162.1, 260.21)">А</text><text class="cls-4" transform="translate(157.47 260.92) rotate(173.48)">С</text><text class="cls-4" transform="matrix(-1, 0.07, -0.07, -1, 152.85, 261.47)">Ы</text><text class="cls-4" transform="translate(146.64 261.86) rotate(177.93)"> </text><text class="cls-4" transform="matrix(-1, 0.03, -0.03, -1, 144.74, 261.92)"> </text><text class="cls-4" transform="translate(142.9 261.98) rotate(-179.94)">*</text><text class="cls-4" transform="matrix(-1, -0.02, 0.02, -1, 139.34, 261.97)"> </text><text class="cls-4" transform="translate(137.46 261.92) rotate(-177.79)"> </text><text class="cls-4" transform="translate(135.61 261.87) rotate(-176.29)">У</text><text class="cls-4" transform="translate(131.11 261.59) rotate(-174.02)">П</text><text class="cls-4" transform="translate(126.05 261.05) rotate(-171.73)">Р</text><text class="cls-4" transform="translate(122.1 260.49) rotate(-169.79)">А</text><text class="cls-4" transform="matrix(-0.98, -0.21, 0.21, -0.98, 117.45, 259.65)">В</text><text class="cls-4" transform="matrix(-0.97, -0.25, 0.25, -0.97, 113.08, 258.7)">Л</text><text class="cls-4" transform="translate(108.18 257.41) rotate(-163.13)">Е</text><text class="cls-4" transform="translate(104.29 256.23) rotate(-160.94)">Н</text><text class="cls-4" transform="matrix(-0.93, -0.37, 0.37, -0.93, 99.49, 254.58)">И</text><text class="cls-4" transform="translate(94.75 252.7) rotate(-156.32)">Е</text><text class="cls-4" transform="translate(91.02 251.05) rotate(-154.9)"> </text><text class="cls-4" transform="translate(89.33 250.29) rotate(-153.25)">П</text><text class="cls-4" transform="translate(84.77 247.99) rotate(-150.91)">А</text><text class="cls-4" transform="matrix(-0.85, -0.52, 0.52, -0.85, 80.68, 245.71)">С</text><text class="cls-4" transform="matrix(-0.83, -0.55, 0.55, -0.83, 76.7, 243.29)">С</text><text class="cls-4" transform="matrix(-0.81, -0.58, 0.58, -0.81, 72.82, 240.73)">А</text><text class="cls-4" transform="matrix(-0.78, -0.62, 0.62, -0.78, 68.98, 237.99)">Ж</text><text class="cls-4" transform="translate(63.89 233.94) rotate(-138.89)">И</text><text class="cls-4" transform="translate(60.06 230.59) rotate(-136.62)">Р</text><text class="cls-4" transform="matrix(-0.7, -0.71, 0.71, -0.7, 56.76, 227.48)">С</text><text class="cls-4" transform="translate(53.49 224.15) rotate(-132.26)">К</text><text class="cls-4" transform="translate(50.49 220.86) rotate(-130.08)">О</text><text class="cls-4" transform="translate(47.31 217.06) rotate(-127.96)">Г</text><text class="cls-4" transform="translate(45.01 214.15) rotate(-125.99)">О</text><text class="cls-4" transform="matrix(-0.56, -0.83, 0.83, -0.56, 42.13, 210.13)"> </text><text class="cls-4" transform="translate(41.14 208.72) rotate(-122.99)">Т</text><text class="cls-4" transform="translate(38.82 205.16) rotate(-120.9)">Р</text><text class="cls-4" transform="matrix(-0.48, -0.88, 0.88, -0.48, 36.75, 201.72)">А</text><text class="cls-4" transform="translate(34.47 197.6) rotate(-116.62)">Н</text><text class="cls-4" transform="translate(32.18 193.04) rotate(-114.29)">С</text><text class="cls-4" transform="translate(30.26 188.8) rotate(-111.96)">П</text><text class="cls-4" transform="translate(28.36 184.08) rotate(-109.57)">О</text><text class="cls-4" transform="translate(26.72 179.44) rotate(-107.3)">Р</text><text class="cls-4" transform="translate(25.36 175.08) rotate(-105.19)">Т</text><text class="cls-4" transform="translate(24.32 171.29) rotate(-103.2)">А</text><text class="cls-4" transform="matrix(-0.2, -0.98, 0.98, -0.2, 23.25, 166.66)"> </text><text class="cls-4" transform="matrix(-0.17, -0.98, 0.98, -0.17, 22.86, 164.85)">И</text><text class="cls-4" transform="translate(21.99 159.81) rotate(-98.31)"> </text><text class="cls-4" transform="translate(21.7 157.97) rotate(-96.74)">А</text><text class="cls-4" transform="translate(21.15 153.26) rotate(-94.56)">В</text><text class="cls-4" transform="translate(20.8 148.92) rotate(-92.57)">Т</text><text class="cls-4" transform="matrix(0, -1, 1, 0, 20.59, 144.78)">О</text><text class="cls-4" transform="translate(20.55 139.84) rotate(-87.88)">М</text><text class="cls-4" transform="translate(20.79 133.63) rotate(-85.25)">О</text><text class="cls-4" transform="translate(21.2 128.72) rotate(-83.02)">Б</text><text class="cls-4" transform="matrix(0.16, -0.99, 0.99, 0.16, 21.74, 124.26)">И</text><text class="cls-4" transform="translate(22.58 119.17) rotate(-78.29)">Л</text><text class="cls-4" transform="matrix(0.24, -0.97, 0.97, 0.24, 23.61, 114.22)">Ь</text><text class="cls-4" transform="translate(24.69 109.84) rotate(-73.7)">Н</text><text class="cls-4" transform="translate(26.1 104.96) rotate(-71)">Ы</text><text class="cls-4" transform="translate(28.14 99.09) rotate(-68.44)">Х</text><text class="cls-4" transform="translate(29.82 94.89) rotate(-66.91)"> </text><text class="cls-4" transform="matrix(0.42, -0.91, 0.91, 0.42, 30.53, 93.15)">Д</text><text class="cls-4" transform="matrix(0.46, -0.89, 0.89, 0.46, 32.77, 88.32)">О</text><text class="cls-4" transform="translate(35.03 83.94) rotate(-60.5)">Р</text><text class="cls-4" transform="translate(37.26 79.99) rotate(-58.25)">О</text><text class="cls-4" transform="matrix(0.56, -0.83, 0.83, 0.56, 39.85, 75.81)">Г</text><text class="cls-4" transform="matrix(0.58, -0.82, 0.82, 0.58, 42.11, 72.47)"> </text><text class="cls-4" transform="translate(43.17 70.94) rotate(-53.18)">А</text><text class="cls-4" transform="translate(46 67.15) rotate(-50.98)">К</text><text class="cls-4" transform="matrix(0.66, -0.75, 0.75, 0.66, 48.9, 63.57)">И</text><text class="cls-4" transform="translate(52.23 59.75) rotate(-46.03)">М</text><text class="cls-4" transform="translate(56.61 55.24) rotate(-43.42)">А</text><text class="cls-4" transform="translate(59.67 52.34) rotate(-41.54)">Т</text><text class="cls-4" transform="matrix(0.77, -0.64, 0.64, 0.77, 62.61, 49.72)">А</text><text class="cls-4" transform="translate(66.28 46.71) rotate(-38.01)"> </text><text class="cls-4" transform="matrix(0.81, -0.59, 0.59, 0.81, 67.7, 45.54)">Ж</text><text class="cls-4" transform="matrix(0.84, -0.55, 0.55, 0.84, 72.99, 41.72)">А</text><text class="cls-4" transform="translate(76.92 39.11) rotate(-30.77)">М</text><text class="cls-4" transform="translate(82.25 35.96) rotate(-28.23)">Б</text><text class="cls-4" transform="translate(86.2 33.81) rotate(-25.68)">Ы</text><text class="cls-4" transform="translate(91.82 31.13) rotate(-22.99)">Л</text><text class="cls-4" transform="translate(96.46 29.16) rotate(-20.67)">С</text><text class="cls-4" transform="matrix(0.95, -0.32, 0.32, 0.95, 100.81, 27.52)">К</text><text class="cls-4" transform="matrix(0.96, -0.28, 0.28, 0.96, 105.06, 26.09)">О</text><text class="cls-4" transform="translate(109.79 24.71) rotate(-13.85)">Й</text><text class="cls-4" transform="translate(114.74 23.52) rotate(-12.19)"> </text><text class="cls-4" transform="translate(116.56 23.1) rotate(-10.56)">О</text><text class="cls-4" transform="matrix(0.99, -0.14, 0.14, 0.99, 121.41, 22.2)">Б</text><text class="cls-4" transform="translate(125.86 21.54) rotate(-6.06)">Л</text><text class="cls-4" transform="translate(130.97 21.01) rotate(-3.71)">А</text><text class="cls-4" transform="translate(135.63 20.71) rotate(-1.84)">С</text><text class="cls-4" transform="translate(140.18 20.58) rotate(0.48)">Т</text><text class="cls-4" transform="translate(144.44 20.6) rotate(2.67)">И</text><circle class="cls-2" cx="141.28" cy="141.28" r="110.28"/><g class="cls-5"><path class="cls-6" d="M388.91,366a213.84,213.84,0,0,0-91.27,11.62A213.84,213.84,0,0,0,206.37,366,106.58,106.58,0,0,1,388.91,366Z" transform="translate(-156.36 -279.67)"/><path class="cls-7" d="M404.18,420.94a106.54,106.54,0,1,1-202.75-45.82q2.25-4.73,4.94-9.17a213.84,213.84,0,0,1,91.27,11.62A213.84,213.84,0,0,1,388.91,366q2.69,4.44,4.94,9.17A106.16,106.16,0,0,1,404.18,420.94Z" transform="translate(-156.36 -279.67)"/><polygon class="cls-8" points="106.62 52.36 60.64 87 141.28 103.67 219.31 87.67 195.21 66.32 175.94 73.67 159.28 56 154.97 57.37 145.64 46 128.64 63.91 106.62 52.36"/><polygon class="cls-9" points="128.64 63.91 172.95 89.24 135.14 103.67 60.64 87 106.62 52.36 128.64 63.91"/><path class="cls-10" d="M412.65,371.82c0.17,1.45-7,1.81-18.8,3.3-15.65,2-39.38,6-64.54,17.29a180,180,0,0,0-25.87,14.25c-2,1.31-3.91,2.66-5.8,4-33.5,24.3-54.84,58.06-68.81,91.58a330,330,0,0,0-11.54,32.54L182.62,496a204,204,0,0,1,16.13-35.35A188.44,188.44,0,0,1,251.29,402c4.83-3.5,9.74-6.68,14.68-9.59a191.28,191.28,0,0,1,31.67-14.84A213.84,213.84,0,0,1,388.91,366C403.46,367.4,412.47,370.23,412.65,371.82Z" transform="translate(-156.36 -279.67)"/><path class="cls-10" d="M412.66,496L378,534.82a330,330,0,0,0-11.54-32.54c-14-33.52-35.31-67.28-68.81-91.58-1.89-1.38-3.83-2.73-5.8-4A180,180,0,0,0,266,392.41c-25.16-11.3-48.89-15.3-64.54-17.29-11.76-1.49-19-1.85-18.8-3.3s9.19-4.42,23.74-5.87a213.84,213.84,0,0,1,91.27,11.62,191.28,191.28,0,0,1,31.67,14.84c4.94,2.91,9.85,6.09,14.68,9.59a188.45,188.45,0,0,1,52.54,58.65A204,204,0,0,1,412.66,496Z" transform="translate(-156.36 -279.67)"/><path class="cls-11" d="M160.58,377.81a0.81,0.81,0,0,1,.12-0.29,2.35,2.35,0,0,1,.6-0.56,11.5,11.5,0,0,1,2.2-1.08c1.66-.65,3.37-1.11,3.37-1.11l0.07,0.27s-1.72.42-3.38,1a11.36,11.36,0,0,0-2.19,1,2.26,2.26,0,0,0-.58.51,0.74,0.74,0,0,0-.11.26Z" transform="translate(-156.36 -279.67)"/><path class="cls-11" d="M182.75,371.82s4-.48,8-0.75,8.07-.37,8.07-0.37l0,0.79s-4,.07-8,0.3-8,.62-8,0.62Z" transform="translate(-156.36 -279.67)"/><path class="cls-11" d="M215,370.93l2.52,0.15c1.51,0.1,3.53.26,5.54,0.45,4,0.37,8,.91,8,0.91l-0.11.82s-4-.51-8-0.86-8-.58-8-0.58Z" transform="translate(-156.36 -279.67)"/><path class="cls-11" d="M247,375.21s4,0.84,7.86,1.84,7.79,2.12,7.79,2.12l-0.1.36s-3.87-1.12-7.8-2-7.87-1.71-7.87-1.71Z" transform="translate(-156.36 -279.67)"/><path class="cls-11" d="M278,384.25s3.79,1.4,7.51,3,7.38,3.28,7.38,3.28l-0.21.43s-3.63-1.75-7.33-3.33-7.47-3-7.47-3Z" transform="translate(-156.36 -279.67)"/><path class="cls-11" d="M307.18,398s3.5,2,6.91,4.19,6.72,4.49,6.72,4.49l-0.49.69s-3.26-2.36-6.64-4.55-6.83-4.26-6.83-4.26Z" transform="translate(-156.36 -279.67)"/><path class="cls-11" d="M333.61,416.51s3.09,2.61,6.05,5.36,5.81,5.62,5.81,5.62l-0.75.74s-2.81-2.88-5.75-5.62-6-5.37-6-5.37Z" transform="translate(-156.36 -279.67)"/><path class="cls-11" d="M356.3,439.5s2.58,3.11,5,6.34c1.22,1.61,2.41,3.24,3.29,4.48l1.44,2.07-0.8.56s-2.31-3.3-4.75-6.49-5-6.3-5-6.3Z" transform="translate(-156.36 -279.67)"/><path class="cls-11" d="M374.64,466.08s2,3.5,3.87,7.09,3.58,7.24,3.58,7.24l-0.51.24s-1.76-3.63-3.67-7.17-3.94-7-3.94-7Z" transform="translate(-156.36 -279.67)"/><polygon class="cls-11" points="232 215.63 234.34 222.32 234.25 222.35 231.74 215.73 232 215.63"/><path class="cls-11" d="M430.61,377.83a0.74,0.74,0,0,0-.11-0.26,2.26,2.26,0,0,0-.58-0.51,11.36,11.36,0,0,0-2.19-1c-1.66-.6-3.38-1-3.38-1l0.07-.27s1.72,0.46,3.37,1.11A11.5,11.5,0,0,1,430,377a2.35,2.35,0,0,1,.6.56,0.81,0.81,0,0,1,.12.29Z" transform="translate(-156.36 -279.67)"/><path class="cls-11" d="M408.48,372.42s-4-.42-8-0.62-8-.3-8-0.3l0-.79s4,0.08,8.07.37,8,0.75,8,.75Z" transform="translate(-156.36 -279.67)"/><path class="cls-11" d="M376.33,371.82s-4,.22-8,0.58-8,.86-8,0.86l-0.11-.82s4-.53,8-0.91c2-.19,4-0.35,5.54-0.45l2.52-.15Z" transform="translate(-156.36 -279.67)"/><path class="cls-11" d="M344.39,375.79s-4,.77-7.87,1.71-7.8,2-7.8,2l-0.1-.36s3.88-1.13,7.79-2.12,7.86-1.84,7.86-1.84Z" transform="translate(-156.36 -279.67)"/><path class="cls-11" d="M313.43,384.57s-3.77,1.43-7.47,3-7.33,3.33-7.33,3.33l-0.21-.43s3.65-1.72,7.38-3.28,7.51-3,7.51-3Z" transform="translate(-156.36 -279.67)"/><path class="cls-11" d="M284.44,398.52s-3.47,2-6.83,4.26-6.64,4.55-6.64,4.55l-0.49-.69s3.31-2.33,6.72-4.49,6.91-4.19,6.91-4.19Z" transform="translate(-156.36 -279.67)"/><path class="cls-11" d="M258.31,417.25s-3.06,2.61-6,5.37-5.75,5.62-5.75,5.62l-0.75-.74s2.84-2.88,5.81-5.62,6.05-5.36,6.05-5.36Z" transform="translate(-156.36 -279.67)"/><path class="cls-11" d="M235.78,440.16s-2.58,3.09-5,6.3-4.75,6.49-4.75,6.49l-0.8-.56,1.44-2.07c0.88-1.24,2.07-2.87,3.29-4.48,2.43-3.23,5-6.34,5-6.34Z" transform="translate(-156.36 -279.67)"/><path class="cls-11" d="M217.31,466.47s-2,3.47-3.94,7-3.67,7.17-3.67,7.17l-0.51-.24s1.71-3.66,3.58-7.24,3.87-7.09,3.87-7.09Z" transform="translate(-156.36 -279.67)"/><polygon class="cls-11" points="46.82 215.73 44.31 222.35 44.22 222.32 46.57 215.63 46.82 215.73"/><polygon class="cls-12" points="106.64 56.39 89.31 69 103.97 64.33 106.64 66.83 108.64 64.83 125.14 67.33 106.64 56.39"/><polygon class="cls-13" points="136.76 59.71 145.51 49.46 152.14 58.83 146.76 56.39 144.45 58.08 143.26 56.39 136.76 59.71"/><polygon class="cls-14" points="184.64 71.96 194.89 68.46 200.76 73.96 195.01 72.08 192.7 73.46 190.89 71.96 184.64 71.96"/><path class="cls-10" d="M388.58,386.87a1.24,1.24,0,0,0,.25.38,3.16,3.16,0,0,1,1.65,3.5c-0.1.45,0.21,0.57,0.61,0.55,0.58,0,1.17,0,1.75,0a1.67,1.67,0,0,1,1.8,1.86c0,3.37,0,6.75,0,10.12a1.7,1.7,0,0,1-.93,1.66c-0.92.48-1.35,0.25-1.46-.75a7.49,7.49,0,0,0-14.88.16c-0.06.68-.29,0.84-0.88,0.75-1.78-.25-2.92.07-3.72,2.11-1.07,2.72-3.6,4-6.53,3.9a6.93,6.93,0,0,1-6.41-4,1.34,1.34,0,0,0-1.57-1c-0.89.15-1.2-.27-1.15-1.15s0-1.84,0-2.76c0-.61.2-1,0.85-0.88,1.07,0.18,1.57-.31,2.07-1.25a7.14,7.14,0,0,1,8.26-3.41,0.87,0.87,0,0,0,1.29-.63c0.09-.26.27-0.49,0.35-0.75a1.39,1.39,0,0,1,1.75-1.13,1,1,0,0,0,1.1-.66c0.2-.37-0.33-0.51-0.49-0.78s-0.57-.38-0.24-0.65,0.39,0.18.55,0.34c0.6,0.62,1.18,1.25,1.77,1.87,0.12,0.13.33,0.28,0.17,0.46s-0.36,0-.51-0.16a2.18,2.18,0,0,0-.25-0.27c-0.23-.15-0.34-0.64-0.72-0.36a1,1,0,0,0-.67,1.17c0.43,1.43.84,2.88,1.26,4.31,0.22,0.77.86,0.4,1.32,0.45s0.47-.42.48-0.76c0-.77,0-1.53,0-2.3a1.08,1.08,0,0,1,1.33-1.31c1.75,0,3.5,0,5.24,0,0.6,0,.86-0.1.85-0.79,0-2.36,0-4.72,0-7.08a0.63,0.63,0,0,0-.78-0.77c-3.16,0-6.32,0-9.47,0-0.45,0-1.05.19-1-.63s0.56-.6,1-0.6c3.8,0,7.6,0,11.41,0,0.59,0,.81.16,0.79,0.77,0,1.38,0,2.76,0,4.14,0,0.56.09,0.85,0.76,0.77a8.47,8.47,0,0,1,1.93,0c0.77,0.08.93-.25,0.9-0.94,0-1.12,0-2.25,0-3.38ZM365,406.12h0c-1,0-2,0-2.94,0a0.62,0.62,0,0,0-.67.14,0.67,0.67,0,0,0,.25.65,5.74,5.74,0,0,0,6.36,2.35,5.71,5.71,0,0,0,.07-11,5.71,5.71,0,0,0-6.33,2.19,0.47,0.47,0,1,0,.39.82c1.93,0,3.86,0,5.79,0a0.78,0.78,0,0,1,1,1c0,1,0,2,0,2.94a0.76,0.76,0,0,1-.93.91C367,406.1,366,406.12,365,406.12Z" transform="translate(-156.36 -279.67)"/><path class="cls-10" d="M378.77,405.17a6,6,0,0,1,6-6.06A6.07,6.07,0,1,1,378.77,405.17Zm6-2.56a2.57,2.57,0,0,0-2.51,2.61,2.53,2.53,0,0,0,2.53,2.48,2.61,2.61,0,0,0,2.59-2.55A2.66,2.66,0,0,0,384.79,402.61Z" transform="translate(-156.36 -279.67)"/><path class="cls-10" d="M366.44,396.29a7.48,7.48,0,1,0,7.48,7.48A7.48,7.48,0,0,0,366.44,396.29Zm0,12.46a5,5,0,1,1,5-5A5,5,0,0,1,366.44,408.75Z" transform="translate(-156.36 -279.67)"/><rect class="cls-10" x="200.32" y="121.54" width="12.63" height="4.98" rx="1.6" ry="1.6"/><path class="cls-10" d="M216.3,400.7c2.84,0,5.67,0,8.51,0a0.71,0.71,0,0,0,.87-0.72c0.55-3.11,1.19-6.2,1.75-9.3a1.06,1.06,0,0,1,1.31-1.1c1.35,0.1,2.71,0,4.07,0a1.38,1.38,0,0,1,1.17.52q2.85,3.27,5.74,6.52a1.67,1.67,0,0,1,.44,1.22c0,1.69,0,3.38,0,5.07a0.6,0.6,0,0,0,.4.77c0.57,0.19.25,0.78,0.25,1.18s-0.4.27-.64,0.27c-1.06,0-2.11.05-3.17,0a0.93,0.93,0,0,0-1.2,1,4.37,4.37,0,0,1-3.72,3.88,4.51,4.51,0,0,1-5.36-3.72,1.07,1.07,0,0,0-1.34-1.13c-1.84.07-3.68,0-5.52,0a0.79,0.79,0,0,0-1,.82,4.64,4.64,0,0,1-4.42,4.14,4.73,4.73,0,0,1-4.62-3.35l0-.08c-0.25-.47.18-1.22-0.41-1.46a4.65,4.65,0,0,0-1.61-.06c-0.27,0-.54,0-0.81,0s-0.63.08-.62-0.32-0.29-1,.23-1.12,0.4-.5.43-0.84c0.07-.71-0.33-1.65.18-2.07s1.33-.12,2-0.12h7.15ZM233,398.91c1.51,0,3,0,4.52,0,0.33,0,.8.21,1-0.19a1.16,1.16,0,0,0-.32-1.23,42.58,42.58,0,0,1-3.35-3.92c-1.23-1.77-2.69-2.66-4.89-2.3a0.91,0.91,0,0,0-1,.83c-0.38,2-.76,4.07-1.21,6.1-0.16.69,0.09,0.75,0.65,0.74C229.88,398.89,231.42,398.91,233,398.91Zm-1.73,9.22a2.79,2.79,0,0,0,2.7-2.63A2.68,2.68,0,1,0,231.22,408.13Zm-14.31-2.65a2.75,2.75,0,0,0-2.62-2.69,2.7,2.7,0,0,0-2.7,2.6,2.73,2.73,0,0,0,2.65,2.75A2.77,2.77,0,0,0,216.91,405.48Z" transform="translate(-156.36 -279.67)"/><path class="cls-10" d="M215.44,399.82c-2.71,0-5.43,0-8.14,0a1.53,1.53,0,0,1-1.25-.54q-2.13-2.28-4.34-4.49a0.69,0.69,0,0,1-.1-1.07,9.41,9.41,0,0,0,1.16-1.82,2.79,2.79,0,0,1,2.65-1.69c5.77-.62,11.53-1.33,17.3-2a0.71,0.71,0,0,0,.77-0.68,0.83,0.83,0,0,1,1-.8c1.6,0.06,3.2.06,4.79,0,0.77,0,.63.43,0.64,0.87s0.08,0.86-.61.8-1.27,0-1.9,0a0.73,0.73,0,0,0-.91.71c-0.66,3.33-1.35,6.65-2,10a0.79,0.79,0,0,1-1,.75C220.87,399.81,218.15,399.82,215.44,399.82Zm4-5c0,1,0,1.93,0,2.89,0,0.49.25,0.53,0.62,0.52s0.65,0,.64-0.52c0-1.9,0-3.79,0-5.69,0-.54-0.29-0.54-0.69-0.56a0.47,0.47,0,0,0-.58.56C219.43,393,219.42,393.9,219.42,394.83Zm-2.23.31c0-.84,0-1.69,0-2.53a0.51,0.51,0,0,0-.61-0.64c-0.41,0-.69.06-0.68,0.58q0,2.58,0,5.16c0,0.56.34,0.52,0.72,0.54a0.47,0.47,0,0,0,.58-0.57C217.17,396.83,217.18,396,217.19,395.14Zm-3.49.25c0-.78,0-1.57,0-2.35a0.5,0.5,0,0,0-.61-0.64c-0.43,0-.67.1-0.66,0.6,0,1.54,0,3.08,0,4.62,0,0.56.26,0.62,0.72,0.64s0.56-.29.55-0.69C213.68,396.84,213.69,396.12,213.69,395.39Zm-3.46.25c0-.72,0-1.44,0-2.16a0.45,0.45,0,0,0-.56-0.56c-0.36,0-.72-0.06-0.71.52q0,2.12,0,4.23c0,0.53.27,0.55,0.67,0.58a0.49,0.49,0,0,0,.6-0.63C210.2,397,210.23,396.3,210.23,395.64Z" transform="translate(-156.36 -279.67)"/><path class="cls-10" d="M320.27,482.79c-1.29,1.24-.61,4,1.45,4.19,1.44,0.12,2.87.37,4.32,0.5a2.12,2.12,0,0,0,1.89-.5c0.3-.33.54-0.12,0.8,0,0.87,0.37,1.75.71,2.6,1.12,2.84,1.35,5.3.6,7.56-1.33,1.15-1,1.29-1,1.76.5a8.54,8.54,0,0,1-.36,5.44c-0.19.57-.67,0.42-1,0.34-0.53-.12-0.11-0.5-0.06-0.72a5.33,5.33,0,0,0-.44-3.83c-0.09-.17-0.14-0.54-0.47-0.39s-0.12.41,0,.61a4.88,4.88,0,0,1,.54,3,1.3,1.3,0,0,1-1.49,1.33c-3.3-.07-6.61,0-10,0a9.82,9.82,0,0,0,1.64-4.34c0-.31.28-0.78-0.19-0.84s-0.22.45-.26,0.7a8.43,8.43,0,0,1-1.53,3.8,1.71,1.71,0,0,1-1.46.74c-1.18,0-2.36,0-3.54,0a6,6,0,0,1-3.69-.76,2.24,2.24,0,0,0-1.27-.23c-4.76,0-9.52-.06-14.28,0a0.92,0.92,0,0,1-1.14-1.13,13.45,13.45,0,0,0-1.46-6.64,3.93,3.93,0,0,0-6.78-.68c-1.66,2-2.18,4.38-2.5,6.83-0.09.7-.23,1-1,1q-11.49,0-23,.15a0.6,0.6,0,0,1-.75-0.75,11.19,11.19,0,0,0-.5-3.89c-0.27-.83-0.6-1.76-1.67-1.8a2.22,2.22,0,0,0-2.07,1.53,10.22,10.22,0,0,0-.86,4.63c0,0.72-.24,1-0.94.87-1.27-.17-2.55-0.24-3.81-0.45a2.1,2.1,0,0,1-1.92-2.42c0.05-1.89.15-3.78,0.2-5.67a0.68,0.68,0,0,1,.68-0.79c7.24-1.2,14.48-2.43,21.72-3.64,4.68-.78,9.38-1.51,14.06-2.26a22.07,22.07,0,0,1,6.93.32,169.51,169.51,0,0,1,20,4.59C318.68,482.17,319.45,482.5,320.27,482.79Z" transform="translate(-156.36 -279.67)"/><path class="cls-10" d="M332.35,458.8c-5.43-3.26-11.35-3.55-17.47-3.87,0.46,0.69.86,1.2,1.18,1.76a35.85,35.85,0,0,1,3.3,9.5,116.4,116.4,0,0,1,2.17,12.34,0.86,0.86,0,0,0,.76.87c4.07,0.9,8,2.24,12.23,2.64a37.09,37.09,0,0,0,5.76.26c-0.55,3.84-3.67,6.46-7.83,5.37a15.56,15.56,0,0,1-4.44-1.91c-5.34-3.41-11.3-5.15-17.36-6.66a129.79,129.79,0,0,0-15.15-3,25.4,25.4,0,0,0-7.53.42q-9.21,1.59-18.42,3.15c-4.61.79-9.23,1.56-13.84,2.37-0.81.14-1.17,0.15-1-.92,0.44-3.1.74-6.22,1.09-9.34a4.13,4.13,0,0,1,2.7-3.4c1.41-.63,2.89-1.11,4.35-1.61,4.49-1.55,9-3.08,13.47-4.62a2.93,2.93,0,0,0,.84-0.34c3.07-2.35,6.77-3.25,10.31-4.51,6.15-2.19,12.36-4.18,18.61-6.09a28.81,28.81,0,0,1,20.33,1.27c1.81,0.77,3.3,1.65,4,3.68C330.68,457.11,331.77,457.69,332.35,458.8Zm-23.75-3.87a14.92,14.92,0,0,0-1.71.1c-4.65.76-9.22,1.9-13.78,3.08a0.81,0.81,0,0,0-.7,1,42.79,42.79,0,0,0,.47,5.13,6.71,6.71,0,0,0,4.69,6c3.26,1.16,6.43,2.57,9.69,3.74q5.93,2.12,11.83,4.31c0.69,0.26.85,0.17,0.73-.61-0.55-3.66-1.19-7.31-2-10.93a44.65,44.65,0,0,0-2.46-8.2,5.59,5.59,0,0,0-4.15-3.34A13.15,13.15,0,0,0,308.59,454.93Zm-52,18.9c0,0.4,0,.57,0,0.73,0,1.2,0,1.2,1.19.93l7.19-1.59,15.46-3.42c3.22-.71,6.44-1.42,9.65-2.16,0.27-.06.83,0.07,0.6-0.62-0.84-2.51-.71-5.13-0.72-7.71,0-.92-0.24-0.94-1-0.68-8.42,2.92-16.86,5.8-25.28,8.72-2,.68-4,1.32-5.87,2.17a1.56,1.56,0,0,0-1.05,1.55C256.74,472.52,256.48,473.27,256.57,473.83Z" transform="translate(-156.36 -279.67)"/><path class="cls-10" d="M339.7,493.74a4.09,4.09,0,0,1-2.78.74c-5.2,0-10.39,0-15.59,0a1.66,1.66,0,0,0-1.61.9,4.71,4.71,0,0,1-7.13.9,2.29,2.29,0,0,0-1.87-.69c-0.61,0-1.21,0-1.82,0s-1,.08-0.95-0.67c0-.39-0.35-0.33-0.61-0.33-1.55,0-3.1.06-4.66,0a0.93,0.93,0,0,0-.93.61,2.51,2.51,0,0,1-2.56,1.43c-1,0-2.09,0-3.14,0a2,2,0,0,1-1.83-.89,1.35,1.35,0,0,0-1.5-.71c-0.6.1-.78-0.22-0.72-0.75,0.07-.7-0.23-1-0.94-0.9a12.59,12.59,0,0,1-2,0,1.69,1.69,0,0,0-1.78.82,1.13,1.13,0,0,1-1.11.55c-0.64,0-1.28,0-1.92,0s-1.46-.09-1.81.84a1,1,0,0,1-1.08.38c-1,0-2.09,0-3.14,0-0.73,0-1.44.05-1.75-.81a0.4,0.4,0,0,0-.38-0.27c-0.66,0-1.46.14-1.38-1,0-.24-0.38-0.2-0.61-0.21l-4,0a0.62,0.62,0,0,0-.75.49,1.44,1.44,0,0,1-1.7,1.08,37.28,37.28,0,0,1-3.73-.23c-1.35-.22-1.85-1.42-2.11-2.56a7.64,7.64,0,0,1,.8-5.48,1.45,1.45,0,0,1,1.22-1,1.39,1.39,0,0,1,1.11,1.18,9.45,9.45,0,0,1,.55,4c-0.07,1,.31,1.09,1.12,1.1,6.24,0,12.49.09,18.73,0.14,1.89,0,3.78,0,5.67.06,0.75,0,.88-0.22.9-0.9a14.84,14.84,0,0,1,1.19-6,4.06,4.06,0,0,1,2.1-2.22,3.25,3.25,0,0,1,4.15,1.55c1.27,2.15,1.36,4.56,1.33,7,0,0.87.19,1.07,1,1.07,5,0,10.09-.24,15.07.27,7.47,0.76,14.94.19,22.4,0.43Zm-41-3.14a5.7,5.7,0,0,0-1-3.45,1.68,1.68,0,0,0-2.83,0,6,6,0,0,0,0,6.71,1.65,1.65,0,0,0,2.75.09A5.37,5.37,0,0,0,298.7,490.6Zm-36.27.41a5,5,0,0,0,.51,2.32c0.44,0.77,1.06.78,1.43,0a5.84,5.84,0,0,0-.21-5.17c-0.34-.7-0.75-0.64-1.12.09A7.4,7.4,0,0,0,262.43,491Zm34.23,5.11c2.33-.48,3.64-3.45,3.23-6.88-0.3-2.53-1.72-4.42-3.25-4.34C300,486.69,300.09,493.89,296.66,496.12Z" transform="translate(-156.36 -279.67)"/><path class="cls-10" d="M335.07,463.48a35.34,35.34,0,0,1,3.33,9,22.88,22.88,0,0,1,.59,6.33,2,2,0,0,0,.69,1.87,0.86,0.86,0,0,1,.45.93,1,1,0,0,1-.93.15c-4.8,0-9.41-1.1-14.05-2.11-2.06-.45-3.27-1.18-3.24-3.48,0-1.22-.19-1.17,1-1a85.4,85.4,0,0,1,12.84,2.13l0.39,0.11c1.83,0.52,1.84.52,1.83-1.44a29.34,29.34,0,0,0-2.76-11.51c-0.09-.22-0.2-0.43-0.28-0.65A0.86,0.86,0,0,1,335.07,463.48Z" transform="translate(-156.36 -279.67)"/></g></svg>